HIERARCHY
ROOT Hips
{
	OFFSET 0.000000 89.005402 0.000000
	CHANNELS 6 Xposition Yposition Zposition Xrotation Yrotation Zrotation
	JOINT Spine
	{
		OFFSET 0.116900 10.681000 0.373400
		CHANNELS 3 Xrotation Yrotation Zrotation
		JOINT Spine1
		{
			OFFSET 0.000000 13.840401 0.053500
			CHANNELS 3 Xrotation Yrotation Zrotation
			JOINT Spine2
			{
				OFFSET 0.000000 14.712700 -0.366200
				CHANNELS 3 Xrotation Yrotation Zrotation
				JOINT Neck
				{
					OFFSET 0.000000 35.415497 -3.314200
					CHANNELS 3 Xrotation Yrotation Zrotation
					JOINT Head
					{
						OFFSET 0.000000 16.899200 1.218300
						CHANNELS 3 Xrotation Yrotation Zrotation
						JOINT HeadTop_End
						{
							OFFSET 0.000000 22.206207 2.192500
							CHANNELS 3 Xrotation Yrotation Zrotation
							End Site
							{
								OFFSET 0.000000 22.314178 0.000000
							}
						}
					}
				}
				JOINT LeftShoulder
				{
					OFFSET 12.896400 26.716293 -4.548400
					CHANNELS 3 Xrotation Yrotation Zrotation
					JOINT LeftArm
					{
						OFFSET 19.027000 -4.857010 -1.718400
						CHANNELS 3 Xrotation Yrotation Zrotation
						JOINT LeftForeArm
						{
							OFFSET 24.179897 0.000000 0.000000
							CHANNELS 3 Xrotation Yrotation Zrotation
							JOINT LeftHand
							{
								OFFSET 27.156403 0.000000 0.000000
								CHANNELS 3 Xrotation Yrotation Zrotation
								JOINT LeftHandIndex1
								{
									OFFSET 16.441200 0.000000 0.000000
									CHANNELS 3 Xrotation Yrotation Zrotation
									JOINT LeftHandIndex2
									{
										OFFSET 4.821899 0.000000 0.000000
										CHANNELS 3 Xrotation Yrotation Zrotation
										JOINT LeftHandIndex3
										{
											OFFSET 6.386497 0.000000 0.000000
											CHANNELS 3 Xrotation Yrotation Zrotation
											JOINT LeftHandIndex4
											{
												OFFSET 5.188988 0.000000 0.000000
												CHANNELS 3 Xrotation Yrotation Zrotation
												End Site
												{
													OFFSET -0.178703 5.185913 0.000177
												}
											}
										}
									}
								}
								JOINT LeftHandThumb1
								{
									OFFSET 6.534897 -5.032593 5.900300
									CHANNELS 3 Xrotation Yrotation Zrotation
									JOINT LeftHandThumb2
									{
										OFFSET 3.818176 -2.204422 2.204423
										CHANNELS 3 Xrotation Yrotation Zrotation
										JOINT LeftHandThumb3
										{
											OFFSET 3.252098 -1.877594 1.877601
											CHANNELS 3 Xrotation Yrotation Zrotation
											JOINT LeftHandThumb4
											{
												OFFSET 5.251778 -3.032120 3.032117
												CHANNELS 3 Xrotation Yrotation Zrotation
												End Site
												{
													OFFSET 0.000023 6.780014 0.000000
												}
											}
										}
									}
								}
							}
						}
					}
				}
				JOINT RightShoulder
				{
					OFFSET -12.896300 26.716293 -4.548400
					CHANNELS 3 Xrotation Yrotation Zrotation
					JOINT RightArm
					{
						OFFSET -19.027000 -4.857010 -1.718400
						CHANNELS 3 Xrotation Yrotation Zrotation
						JOINT RightForeArm
						{
							OFFSET -24.179897 0.000000 0.000000
							CHANNELS 3 Xrotation Yrotation Zrotation
							JOINT RightHand
							{
								OFFSET -27.156403 0.000000 0.000000
								CHANNELS 3 Xrotation Yrotation Zrotation
								JOINT RightHandThumb1
								{
									OFFSET -6.591202 -4.852203 5.988100
									CHANNELS 3 Xrotation Yrotation Zrotation
									JOINT RightHandThumb2
									{
										OFFSET -3.818176 -2.204422 2.204423
										CHANNELS 3 Xrotation Yrotation Zrotation
										JOINT RightHandThumb3
										{
											OFFSET -3.252098 -1.877594 1.877601
											CHANNELS 3 Xrotation Yrotation Zrotation
											JOINT RightHandThumb4
											{
												OFFSET -5.251778 -3.032120 3.032117
												CHANNELS 3 Xrotation Yrotation Zrotation
												End Site
												{
													OFFSET -0.000023 6.780014 0.000000
												}
											}
										}
									}
								}
								JOINT RightHandIndex1
								{
									OFFSET -16.029404 0.000000 0.000000
									CHANNELS 3 Xrotation Yrotation Zrotation
									JOINT RightHandIndex2
									{
										OFFSET -5.213303 0.000000 0.000000
										CHANNELS 3 Xrotation Yrotation Zrotation
										JOINT RightHandIndex3
										{
											OFFSET -6.386528 0.000000 0.000000
											CHANNELS 3 Xrotation Yrotation Zrotation
											JOINT RightHandIndex4
											{
												OFFSET -5.189026 0.000000 0.000000
												CHANNELS 3 Xrotation Yrotation Zrotation
												End Site
												{
													OFFSET 0.236702 5.183624 0.001972
												}
											}
										}
									}
								}
							}
						}
					}
				}
			}
		}
	}
	JOINT LeftUpLeg
	{
		OFFSET 14.073000 -7.904099 -1.463000
		CHANNELS 3 Xrotation Yrotation Zrotation
		JOINT LeftLeg
		{
			OFFSET -0.109806 -34.073280 4.093200
			CHANNELS 3 Xrotation Yrotation Zrotation
			JOINT LeftFoot
			{
				OFFSET 0.109806 -29.899420 -6.319000
				CHANNELS 3 Xrotation Yrotation Zrotation
				JOINT LeftToeBase
				{
					OFFSET 1.551100 -14.988700 20.535801
					CHANNELS 3 Xrotation Yrotation Zrotation
					JOINT LeftToe_End
					{
						OFFSET 0.221200 0.570800 13.248301
						CHANNELS 3 Xrotation Yrotation Zrotation
						End Site
						{
							OFFSET 0.000000 13.262435 0.000000
						}
					}
				}
			}
		}
	}
	JOINT RightUpLeg
	{
		OFFSET -13.839300 -7.904099 -1.463000
		CHANNELS 3 Xrotation Yrotation Zrotation
		JOINT RightLeg
		{
			OFFSET 0.109694 -34.073219 4.093300
			CHANNELS 3 Xrotation Yrotation Zrotation
			JOINT RightFoot
			{
				OFFSET -0.109694 -29.899384 -6.319200
				CHANNELS 3 Xrotation Yrotation Zrotation
				JOINT RightToeBase
				{
					OFFSET -1.551100 -14.988700 20.535801
					CHANNELS 3 Xrotation Yrotation Zrotation
					JOINT RightToe_End
					{
						OFFSET -0.221200 0.570900 13.248299
						CHANNELS 3 Xrotation Yrotation Zrotation
						End Site
						{
							OFFSET 0.000000 13.262440 0.000000
						}
					}
				}
			}
		}
	}
}
MOTION
Frames: 7
Frame Time: 0.033333
0.085707 50.699738 9.209878 0.086439 0.067488 0.949980 10.557675 0.124710 -1.452668 -0.199082 0.213341 -0.355398 -0.199406 0.248542 -0.300816 -0.779684 -1.254292 0.493293 -8.235614 -4.330511 -5.222788 -0.000000 -0.000000 -0.000000 0.815228 -15.274504 -8.181923 4.989763 -21.241168 -54.439961 0.000050 -62.535272 0.000054 30.923231 4.355719 41.778365 -0.146395 2.906370 -27.192341 0.397485 2.122937 -21.206650 0.083414 0.986158 -9.670058 -0.000000 -0.000001 0.000004 6.881845 1.946946 20.970812 2.301468 20.190538 -23.997584 -5.387527 29.854357 4.752671 0.000001 -0.000003 -0.000003 3.161689 -4.374878 8.761207 -4.086063 37.163688 63.876236 -0.000001 55.344176 0.000006 43.641384 4.648954 -36.303849 -9.383851 -1.642082 -17.624168 3.757304 -24.275544 34.874369 -6.771989 -37.554306 -11.482677 0.000003 0.000002 0.000002 2.956330 0.988069 13.643906 0.474376 -2.049623 26.060457 0.060448 -0.748724 9.231475 0.000001 -0.000001 -0.000002 -88.187093 -8.236211 14.557512 82.287524 2.964515 -0.529903 7.638252 -6.738919 -8.286098 -0.082106 0.000004 -0.000002 -0.000000 -0.000000 0.000000 -89.536540 9.796115 -10.595363 82.905635 -2.627549 -1.122543 8.635573 -0.172036 9.294950 -0.201251 0.000003 0.000003 -0.000000 0.000000 0.000000 
0.084729 50.699081 9.211478 0.095025 0.061383 0.950534 10.562713 0.120406 -1.446809 -0.199081 0.213341 -0.355398 -0.199406 0.248542 -0.300816 -0.787434 -1.259759 0.488583 -8.224515 -4.332998 -5.216292 -0.000000 0.000000 -0.000000 0.811566 -15.241734 -8.195306 4.992963 -21.262480 -54.423180 -0.000009 -62.525341 -0.000015 30.937209 4.356147 41.787005 -0.148707 2.902977 -27.205060 0.397728 2.123593 -21.213605 0.083541 0.986857 -9.676998 -0.000000 -0.000004 0.000001 6.901889 1.918398 20.917483 2.311567 20.190353 -24.006691 -5.392369 29.855887 4.761965 -0.000001 -0.000003 -0.000000 3.159910 -4.372953 8.765092 -4.088261 37.161666 63.876387 0.000051 55.362494 -0.000066 43.644987 4.655485 -36.301106 -9.365415 -1.633474 -17.616533 3.767123 -24.270703 34.885362 -6.788902 -37.564934 -11.513733 0.000001 0.000000 0.000001 2.953745 0.997445 13.649506 0.474114 -2.049094 26.053299 0.060367 -0.748164 9.224324 0.000000 -0.000000 -0.000003 -88.192010 -8.236709 14.559631 82.289245 2.959936 -0.532285 7.633212 -6.736309 -8.297128 -0.093685 0.000001 -0.000001 0.000000 0.000000 0.000000 -89.547680 9.793949 -10.593721 82.906680 -2.630270 -1.123267 8.636580 -0.172280 9.290848 -0.196469 -0.000004 -0.000000 0.000000 0.000000 0.000000 
0.084150 50.698715 9.212788 0.101626 0.058191 0.946298 10.570764 0.119907 -1.450072 -0.199081 0.213341 -0.355398 -0.199406 0.248542 -0.300816 -0.795774 -1.274294 0.504176 -8.215428 -4.345590 -5.201544 0.000000 0.000000 -0.000000 0.810961 -15.209976 -8.189615 4.987251 -21.298686 -54.422742 0.000041 -62.509051 0.000047 30.949564 4.339252 41.815374 -0.146212 2.901987 -27.224407 0.398076 2.124500 -21.222967 0.083690 0.987809 -9.686415 -0.000000 -0.000003 -0.000002 6.940036 1.892945 20.864235 2.311559 20.190236 -24.006477 -5.392812 29.855249 4.760028 0.000002 -0.000002 -0.000000 3.161374 -4.369107 8.792416 -4.074906 37.148911 63.850562 0.000003 55.391335 -0.000002 43.647040 4.650526 -36.302165 -9.365036 -1.624616 -17.613029 3.773351 -24.267379 34.890870 -6.797672 -37.571166 -11.529828 0.000003 0.000000 0.000001 2.952049 1.003124 13.654889 0.474203 -2.049252 26.055278 0.060375 -0.748324 9.226304 0.000001 -0.000001 0.000002 -88.197816 -8.241919 14.562163 82.297427 2.956483 -0.535369 7.624081 -6.739118 -8.302374 -0.106021 -0.000001 -0.000002 0.000000 0.000000 0.000000 -89.555562 9.785489 -10.592484 82.911810 -2.631624 -1.124783 8.631779 -0.172299 9.282605 -0.203604 0.000003 0.000003 -0.000000 -0.000001 -0.000000 
0.084179 50.699295 9.213299 0.105471 0.056737 0.942968 10.575493 0.120577 -1.457211 -0.199081 0.213341 -0.355398 -0.199407 0.248542 -0.300816 -0.798014 -1.289857 0.517324 -8.200894 -4.371149 -5.187916 -0.000000 0.000000 -0.000000 0.811596 -15.186413 -8.181662 4.981420 -21.331473 -54.424662 0.000015 -62.496368 0.000012 30.955961 4.314581 41.842360 -0.139416 2.904924 -27.233351 0.398367 2.125227 -21.230540 0.083827 0.988577 -9.693970 -0.000001 -0.000001 0.000001 6.958725 1.888002 20.849263 2.328618 20.189735 -24.022831 -5.400567 29.856273 4.774032 -0.000001 -0.000003 0.000002 3.163093 -4.368509 8.806505 -4.062468 37.146216 63.833022 -0.000022 55.405914 0.000019 43.643795 4.646375 -36.310717 -9.380883 -1.623315 -17.614025 3.758270 -24.275805 34.871746 -6.777934 -37.562936 -11.493971 -0.000000 -0.000003 -0.000001 2.952138 1.001236 13.660447 0.475293 -2.051483 26.085920 0.060786 -0.750755 9.256896 0.000000 0.000001 -0.000006 -88.198772 -8.253543 14.562995 82.310084 2.958432 -0.539057 7.611120 -6.737642 -8.306980 -0.108296 0.000002 -0.000000 0.000000 0.000001 0.000000 -89.558069 9.778034 -10.593454 82.915908 -2.630450 -1.126215 8.625365 -0.172337 9.278412 -0.213556 -0.000001 0.000000 -0.000000 0.000001 0.000000 
0.083965 50.699638 9.214211 0.108669 0.053637 0.945104 10.575746 0.115473 -1.457626 -0.199081 0.213341 -0.355398 -0.199407 0.248542 -0.300816 -0.797848 -1.296815 0.504259 -8.184202 -4.397975 -5.184741 -0.000000 0.000001 0.000000 0.812210 -15.150275 -8.201103 4.987795 -21.358080 -54.400264 0.000036 -62.485610 0.000030 30.965240 4.299089 41.855041 -0.137336 2.905385 -27.225880 0.398412 2.125359 -21.232048 0.083855 0.988710 -9.695423 -0.000001 0.000001 -0.000000 6.941926 1.906102 20.881037 2.371283 20.188760 -24.063334 -5.419081 29.860296 4.812739 0.000001 -0.000002 -0.000002 3.162493 -4.370325 8.784958 -4.063035 37.167540 63.841143 -0.000012 55.398401 0.000014 43.630132 4.656627 -36.320415 -9.389440 -1.630959 -17.615169 3.736272 -24.288100 34.845088 -6.752082 -37.552302 -11.447417 0.000002 0.000001 0.000001 2.953732 0.994251 13.661522 0.477437 -2.055858 26.145807 0.061566 -0.755583 9.316716 -0.000001 -0.000001 0.000002 -88.195480 -8.267657 14.560674 82.324017 2.965400 -0.542613 7.596364 -6.727692 -8.316534 -0.101404 -0.000003 0.000000 -0.000000 -0.000001 0.000000 -89.560446 9.776331 -10.597247 82.915348 -2.622583 -1.127170 8.623676 -0.172302 9.280745 -0.218162 -0.000003 0.000001 -0.000000 -0.000000 0.000000 
0.083151 50.698952 9.216484 0.109743 0.051886 0.947689 10.572257 0.110821 -1.453051 -0.199081 0.213341 -0.355398 -0.199406 0.248542 -0.300816 -0.793298 -1.296683 0.479635 -8.173662 -4.414866 -5.190560 -0.000000 -0.000000 -0.000000 0.815071 -15.146397 -8.205286 4.985357 -21.347891 -54.405551 -0.000018 -62.480248 -0.000023 30.984224 4.293200 41.861649 -0.146959 2.897201 -27.213458 0.398181 2.124775 -21.226025 0.083750 0.988124 -9.689422 -0.000000 -0.000001 0.000004 6.916554 1.925479 20.916963 2.405517 20.187702 -24.095490 -5.433466 29.862608 4.842378 0.000000 -0.000003 -0.000001 3.161567 -4.372966 8.754074 -4.069298 37.189004 63.857966 0.000005 55.387527 0.000007 43.613244 4.675404 -36.325781 -9.376186 -1.642853 -17.615410 3.738928 -24.287176 34.848226 -6.760359 -37.558411 -11.463219 0.000001 -0.000001 -0.000002 2.955936 0.988258 13.649244 0.478524 -2.058057 26.176049 0.061968 -0.758018 9.346930 0.000002 -0.000000 0.000004 -88.193875 -8.274932 14.556195 82.336824 2.971912 -0.545178 7.584268 -6.721361 -8.322310 -0.097154 0.000001 0.000005 0.000000 0.000001 0.000000 -89.562153 9.777432 -10.603546 82.910888 -2.608608 -1.127867 8.627302 -0.172003 9.284387 -0.214493 -0.000004 0.000000 -0.000000 -0.000000 0.000000 
0.082420 50.697617 9.218953 0.108964 0.055498 0.944480 10.566948 0.115139 -1.453223 -0.199081 0.213341 -0.355399 -0.199405 0.248541 -0.300816 -0.782403 -1.295596 0.473208 -8.171409 -4.414689 -5.197697 -0.000000 0.000000 0.000000 0.818802 -15.195446 -8.168069 4.960865 -21.300023 -54.469413 -0.000003 -62.484415 -0.000002 31.004612 4.284548 41.864289 -0.163763 2.883199 -27.205506 0.397860 2.123951 -21.217245 0.083605 0.987243 -9.680719 -0.000000 -0.000000 0.000001 6.904266 1.921997 20.911522 2.424806 20.186824 -24.113329 -5.441241 29.862393 4.856655 0.000000 -0.000001 0.000001 3.162987 -4.374607 8.749262 -4.067283 37.186186 63.859468 -0.000018 55.388166 0.000024 43.606550 4.686558 -36.326347 -9.356404 -1.648336 -17.613972 3.765786 -24.273198 34.880670 -6.797149 -37.576614 -11.530225 -0.000001 0.000001 0.000000 2.957552 0.987994 13.625158 0.476991 -2.054970 26.133386 0.061413 -0.754593 9.304313 0.000002 -0.000000 -0.000001 -88.196477 -8.274236 14.555398 82.346407 2.971741 -0.547154 7.576684 -6.725699 -8.321937 -0.097443 -0.000001 -0.000001 0.000000 -0.000001 0.000000 -89.560432 9.778648 -10.611347 82.905608 -2.597924 -1.127877 8.632407 -0.172120 9.288106 -0.203533 -0.000005 0.000000 -0.000000 0.000000 0.000000 
